<svg xmlns="http://www.w3.org/2000/svg" viewBox="0 0 600 600" height="25" width="25"><defs><linearGradient id="a" y2="67.326%" x2="29.516%" y1="66.91%" x1="144.588%"><stop offset="0%" stop-opacity="0" stop-color="#E0E5EF"/><stop offset="100%" stop-color="#E0E5EF"/></linearGradient><linearGradient id="b" y2="67.325%" x2="29.516%" y1="66.909%" x1="144.588%"><stop offset="0%" stop-opacity="0" stop-color="#E0E5EF"/><stop offset="100%" stop-color="#E0E5EF"/></linearGradient><linearGradient id="c" y2="100%" x2="40.6%" y1="98.8%" x1="93.406%"><stop offset="0%" stop-opacity="0" stop-color="#E0E5EF"/><stop offset="100%" stop-color="#E0E5EF"/></linearGradient><linearGradient id="d" y2="100%" x2="40.792%" y1="98.8%" x1="92.518%"><stop offset="0%" stop-opacity="0" stop-color="#E0E5EF"/><stop offset="100%" stop-color="#E0E5EF"/></linearGradient><linearGradient id="e" y2="31.614%" x2="-31.215%" y1="46.729%" x1="50%"><stop offset="0%" stop-opacity=".238" stop-color="#E8EBF1"/><stop offset="100%" stop-color="#A2ABB9"/></linearGradient><linearGradient id="f" y2="44.458%" x2="51.367%" y1="60.822%" x1="50%"><stop offset="0%" stop-color="#A2ABB9"/><stop offset="100%" stop-color="#E7EAF0"/></linearGradient><linearGradient id="g" y2="30.423%" x2="51.367%" y1="77.301%" x1="50%"><stop offset="0%" stop-color="#A2ABB9"/><stop offset="100%" stop-color="#E7EAF0"/></linearGradient><linearGradient id="h" y2="-14.316%" x2="50%" y1="311.849%" x1="50%"><stop offset="0%" stop-color="#A2ABB9"/><stop offset="100%" stop-color="#E7EAF0"/></linearGradient><linearGradient id="i" y2="-28.958%" x2="95.92%" y1="100%" x1="50%"><stop offset="0%" stop-color="#A2ABB9"/><stop offset="100%" stop-color="#E7EAF0"/></linearGradient></defs><g fill-rule="evenodd" fill="none"><path opacity=".602" fill="#F3F3FA" d="M297.367 77c51.035 0 98.093 16.762 135.801 44.999L418 122c-7.18 0-13 5.82-13 13v1c0 7.18 5.82 13 13 13h45.178a222.345 222.345 0 0 1 23.25 29.763h21.449c7.732 0 14 6.268 14 14v.781c0 6.388-4.278 11.777-10.126 13.457L492 207c-8.837 0-16 7.163-16 16v5c0 8.837 7.163 16 16 16h67.901c6.951 1.742 12.099 8.03 12.099 15.52v.894c0 8.837-7.163 16-16 16l-35.18-.001c.699 7.103 1.057 14.304 1.057 21.587 0 122.055-100.516 221-224.51 221-99.178 0-183.335-63.304-213.049-151.103h-8.426A6.167 6.167 0 0 1 73.607 356H84c7.18 0 13-5.82 13-13v-1c0-7.18-5.82-13-13-13h-8.95a218.29 218.29 0 0 1-.024-.16l-22.172-.003c-5.677 0-10.279-4.602-10.279-10.279s4.602-10.279 10.28-10.279l20.241.002A221.234 221.234 0 0 1 72.858 298c0-32.63 7.184-63.608 20.08-91.486L57 206.516c-15.464 0-28-12.536-28-28v-1.563c0-14.922 11.674-27.118 26.387-27.954L182 149c5.523 0 10-4.477 10-10s-4.477-10-10-10l-29.309-.001c.244-.203.489-.405.734-.606l-14.577.002c-10.493 0-19-8.506-19-19v-1.06c0-10.494 8.507-19 19-19l84.383-.002C246.44 81.343 271.388 77 297.367 77z"/><path fill-rule="nonzero" fill="url(#a)" d="M181.78 213.968h-7.312c0-14.635-11.864-26.5-26.5-26.5-14.635 0-26.5 11.865-26.5 26.5h-5.34c-6.733 0-12.191 5.933-12.191 13.25 0 7.318 5.458 13.25 12.191 13.25h65.652c6.734 0 12.192-5.932 12.192-13.25s-5.458-13.25-12.192-13.25z"/><path fill-rule="nonzero" fill="url(#b)" d="M368.902 138.627h-5.242c0-10.493-8.506-19-19-19-10.495 0-19.001 8.507-19.001 19h-3.83c-4.827 0-8.74 4.255-8.74 9.501 0 5.247 3.913 9.5 8.74 9.5h47.073c4.828 0 8.741-4.253 8.741-9.5 0-5.246-3.913-9.5-8.74-9.5z"/><path fill="#E7EAF0" d="M284.5 415c61.38 0 116.652 5.007 155.288 13.004 37.787.251 68.212 11.57 68.212 25.496 0 11.037-19.11 20.436-45.85 23.986-6.383 1.888-13.567 3.668-21.459 5.322A16.65 16.65 0 0 1 441 486c0 24.3-52.83 44-118 44-58.632 0-107.276-15.945-116.446-36.84C128.32 487.217 73 472.595 73 455.5c0-22.368 94.692-40.5 211.5-40.5z"/><g fill-rule="nonzero"><path fill="url(#c)" d="M371.313 30.568c.083.33.187.679.312 1.05l.25.988c.083.329.125.597.125.802 0 1.153-.313 2.172-.938 3.057a5.48 5.48 0 0 1-2.437 1.945c-.375.042-.77.062-1.188.062a9.246 9.246 0 0 1-1.125.062h-1.187l-9.75.123V48.97c0 1.523.031 3.057.094 4.6.062 1.545.135 2.934.219 4.169.083 1.482.187 2.902.312 4.261h-9l.188-2.408c.041-.947.083-2.234.125-3.86.041-1.626.062-3.798.062-6.515V39.77c-.708.617-1.5.926-2.375.926-.708 0-1.323-.164-1.844-.494a3.856 3.856 0 0 1-1.281-1.358l-7.063-.37a6.445 6.445 0 0 1-3.437-2.07c-.917-1.05-1.375-2.295-1.375-3.736 0-.247.02-.473.063-.679.041-.206.104-.412.187-.617l1.563-3.582c.083-.906.343-1.75.78-2.532a7.529 7.529 0 0 1 1.657-2.038l9.813-17.97h.062c.792-1.44 1.73-2.676 2.813-3.705C348.02.514 349.416 0 351.125 0c1.5 0 2.844.391 4.031 1.173a7.234 7.234 0 0 1 2.656 3.088l7.875 15.253c1.417.494 2.584 1.359 3.5 2.594.917 1.235 1.375 2.655 1.375 4.26 0 .66-.104 1.36-.312 2.1l1.063 2.1zM411.313 50.568c.083.33.187.679.312 1.05l.25.988c.083.329.125.597.125.802 0 1.153-.313 2.172-.938 3.057a5.48 5.48 0 0 1-2.437 1.945c-.375.042-.77.062-1.188.062a9.246 9.246 0 0 1-1.125.062h-1.187l-9.75.123V68.97c0 1.523.031 3.057.094 4.6.062 1.545.135 2.934.219 4.169.083 1.482.187 2.902.312 4.261h-9l.188-2.408c.041-.947.083-2.234.125-3.86.041-1.626.062-3.798.062-6.515V59.77c-.708.617-1.5.926-2.375.926-.708 0-1.323-.164-1.844-.494a3.856 3.856 0 0 1-1.281-1.358l-7.063-.37a6.445 6.445 0 0 1-3.437-2.07c-.917-1.05-1.375-2.295-1.375-3.736 0-.247.02-.473.063-.679.041-.206.104-.412.187-.617l1.563-3.582c.083-.906.343-1.75.78-2.532a7.529 7.529 0 0 1 1.657-2.038l9.813-17.97h.062c.792-1.44 1.73-2.676 2.813-3.705 1.083-1.03 2.479-1.544 4.187-1.544 1.5 0 2.844.391 4.031 1.173a7.234 7.234 0 0 1 2.656 3.088l7.875 15.253c1.417.494 2.584 1.359 3.5 2.594.917 1.235 1.375 2.655 1.375 4.26 0 .66-.104 1.36-.312 2.1l1.063 2.1z" transform="translate(92 370)"/><path fill="url(#d)" d="M58.034 43.386c.117.468.264.965.44 1.49l.35 1.403c.117.467.176.847.176 1.14 0 1.635-.439 3.082-1.317 4.338a7.714 7.714 0 0 1-3.424 2.76c-.527.06-1.083.089-1.668.089-.468.058-.995.087-1.58.087h-1.669l-13.696.176v14.637c0 2.162.044 4.339.132 6.53.087 2.191.19 4.163.307 5.916.117 2.104.263 4.12.439 6.048H23.88l.263-3.418c.059-1.344.117-3.17.176-5.478.058-2.309.088-5.39.088-9.247v-13.41c-.995.876-2.107 1.314-3.337 1.314-.995 0-1.858-.234-2.59-.701-.731-.468-1.331-1.11-1.8-1.929l-9.92-.525c-1.932-.468-3.542-1.447-4.83-2.937C.645 50.18 0 48.412 0 46.367c0-.351.03-.672.088-.965a4.99 4.99 0 0 1 .263-.876l2.195-5.084a9.028 9.028 0 0 1 1.098-3.593 10.665 10.665 0 0 1 2.326-2.893L19.754 7.45h.088c1.112-2.045 2.43-3.798 3.951-5.259C25.315.731 27.276 0 29.676 0c2.107 0 3.994.555 5.663 1.665a10.238 10.238 0 0 1 3.73 4.383l11.063 21.65c1.99.7 3.63 1.927 4.917 3.68 1.288 1.753 1.932 3.77 1.932 6.048 0 .935-.147 1.929-.44 2.98l1.493 2.98z" transform="translate(92 370)"/></g><g transform="translate(211 180.212)" stroke-linecap="round"><path opacity=".5" fill-rule="nonzero" fill="url(#e)" d="M5 279.83l192.189 97.958L338 297.9l-180.771-56.112z"/><path fill-rule="nonzero" fill="url(#f)" d="M20.9 122.788l-20.9 50h171l-21.241-50z"/><path fill-rule="nonzero" fill="url(#g)" d="M0 172.788h171l-5.4 107H5.4z"/><rect rx="5" height="10" width="69" y="188.788" x="51" fill="#FFF"/><rect rx="5" height="10" width="57" y="133.788" x="57" fill="#FFF"/><path fill="#E7EAF0" d="M85.5 256.038l-14.928 7.848a2 2 0 0 1-2.902-2.108l2.85-16.623-12.076-11.772a2 2 0 0 1 1.108-3.412l16.69-2.425 7.465-15.124a2 2 0 0 1 3.586 0l7.465 15.124 16.69 2.425a2 2 0 0 1 1.108 3.412l-12.077 11.772 2.851 16.623a2 2 0 0 1-2.902 2.108L85.5 256.038z"/><path fill-rule="nonzero" fill="url(#h)" d="M20.782 122.788l1.218 50H0z"/><path transform="matrix(-1 0 0 1 320 0)" fill-rule="nonzero" fill="url(#h)" d="M169.782 122.788l1.218 50h-22z"/><path stroke-dasharray="4" stroke-linejoin="round" stroke="#D1D6E2" d="M43.783 54.586c.642 28.392 9.95 42.355 27.923 41.89 26.96-.699 37.703-37.492 13.59-37.34-16.45 6.206-13.825 32.348 32.369 43.46 34.72 3.537 14.024 42.815-10.248 52.082"/><path d="M25.901 38.078l13.52 5.87L46 0 0 27.117l12.07 5.714L41.234 6.234 17.82 35.533 17.509 48z" fill-rule="nonzero" fill="url(#i)" transform="scale(-1 1) rotate(-2 15.574 1743.093)"/></g></g></svg>
