<svg class="icon" viewBox="0 0 1024 1024" xmlns="http://www.w3.org/2000/svg" width="25" height="25"><path d="M696.3 928c-61.4-.2-119.2-24.2-162.6-67.6-43.5-43.5-67.5-101.2-67.7-162.7.4 126.8 103.5 229.9 230.3 230.3zm1.3 0c126.9-.4 230-103.5 230.4-230.3-.2 61.5-24.2 119.2-67.7 162.7-43.5 43.4-101.2 67.4-162.7 67.6zM928 697c0-127.4-103.7-231-231.1-231C569.6 466 466 569.6 466 697c0-127.4 103.6-231 230.9-231C824.3 466 928 569.6 928 697z" fill="currentColor"/><path d="M696.9 434C552 434 434 552 434 697c0 70.3 27.4 136.3 77 186 49.7 49.7 115.7 77 185.9 77 70.3 0 136.3-27.3 186-77 49.7-49.7 77.1-115.7 77.1-186 0-145-118-263-263.1-263zm0 462C587.2 896 498 806.7 498 697s89.2-199 198.9-199C806.7 498 896 587.3 896 697s-89.3 199-199.1 199z" fill="currentColor"/><path d="M696.3 928c-61.4-.2-119.2-24.2-162.6-67.6-43.5-43.5-67.5-101.2-67.7-162.7.4 126.8 103.5 229.9 230.3 230.3zm1.3 0c126.9-.4 230-103.5 230.4-230.3-.2 61.5-24.2 119.2-67.7 162.7-43.5 43.4-101.2 67.4-162.7 67.6zM928 697c0-127.4-103.7-231-231.1-231C569.6 466 466 569.6 466 697c0-127.4 103.6-231 230.9-231C824.3 466 928 569.6 928 697z" fill="currentColor"/><path d="M696.9 434C552 434 434 552 434 697c0 70.3 27.4 136.3 77 186 49.7 49.7 115.7 77 185.9 77 70.3 0 136.3-27.3 186-77 49.7-49.7 77.1-115.7 77.1-186 0-145-118-263-263.1-263zm0 462C587.2 896 498 806.7 498 697s89.2-199 198.9-199C806.7 498 896 587.3 896 697s-89.3 199-199.1 199z" fill="currentColor"/><path d="M821.7 617.5l-45.2-45.2-79.5 79.4-79.5-79.4-45.2 45.2 79.4 79.5-79.4 79.5 45.2 45.2 79.5-79.4 79.5 79.4 45.2-45.2-79.4-79.5zM96 96h672H96l44.8 44.8z" fill="currentColor"/><path d="M768 64H96c-12.9 0-24.6 7.8-29.6 19.8s-2.2 25.7 6.9 34.9l249.1 249.1V768c0 17.7 14.3 32 32 32h32a329.09 329.09 0 0 1-16.5-103c0-35.8 5.8-70.2 16.5-102.5v-240c0-8.5-3.4-16.6-9.4-22.6L173.3 128h517.5L486.9 331.8c-6 6-9.4 14.1-9.4 22.6v100.3c19.4-17.6 40.8-32.8 64-45.4v-41.6l249.1-249.1c9.2-9.2 11.9-22.9 6.9-34.9C792.6 71.8 780.9 64 768 64z" fill="currentColor" data-spm-anchor-id="a313x.collections_detail.0.i3.70ef3a81OlGor2" class="selected"/></svg>
