<svg class="icon" viewBox="0 0 1024 1024" xmlns="http://www.w3.org/2000/svg"><path d="M512 102.4c225.28 0 409.6 184.32 409.6 409.6S737.28 921.6 512 921.6 102.4 737.28 102.4 512 286.72 102.4 512 102.4M512 0C230.4 0 0 230.4 0 512s230.4 512 512 512 512-230.4 512-512S793.6 0 512 0z" fill="currentColor"/><path d="M583.68 512L691.2 404.48c20.48-20.48 20.48-51.2 0-71.68s-51.2-20.48-71.68 0L512 440.32 404.48 332.8c-20.48-20.48-51.2-20.48-71.68 0-20.48 20.48-20.48 51.2 0 71.68L440.32 512 332.8 619.52c-20.48 20.48-20.48 51.2 0 71.68 20.48 20.48 51.2 20.48 71.68 0L512 583.68 619.52 691.2c20.48 20.48 51.2 20.48 71.68 0s20.48-51.2 0-71.68L583.68 512z" fill="currentColor"/></svg>
