<svg class="icon" viewBox="0 0 1024 1024" xmlns="http://www.w3.org/2000/svg"><path d="M921.508 1024H102.39A102.39 102.39 0 0 1 0 921.61V665.636a51.195 51.195 0 0 1 102.39 0V921.61h819.118V665.636a51.195 51.195 0 0 1 102.39 0V921.61A102.39 102.39 0 0 1 921.508 1024z" fill="currentColor"/><path d="M754.766 489.423L547.273 703.264a47.867 47.867 0 0 1-69.164 0l-207.442-213.84a51.553 51.553 0 0 1 0-71.315 47.918 47.918 0 0 1 69.165 0l124.096 127.987V48.89a48.84 48.84 0 0 1 97.629 0v497.102l124.045-127.987a47.918 47.918 0 0 1 69.164 0 51.553 51.553 0 0 1 0 71.417z" fill="currentColor"/></svg>
