<svg class="icon" viewBox="0 0 1024 1024" xmlns="http://www.w3.org/2000/svg" width="25" height="25"><path d="M104.7 715.6h543c22.5 0 40.7-18.2 40.7-40.8 0-22.5-18.2-40.7-40.7-40.7h-543c-22.5 0-40.7 18.2-40.7 40.7 0 22.6 18.2 40.8 40.7 40.8zm0-325.8h543c22.5 0 40.7-18.2 40.7-40.7 0-22.5-18.2-40.8-40.7-40.8h-543c-22.5 0-40.7 18.3-40.7 40.8 0 22.5 18.2 40.7 40.7 40.7zm814.6 407.3H104.7c-22.5 0-40.7 18.2-40.7 40.7 0 22.5 18.2 40.8 40.7 40.8h814.5c22.5 0 40.7-18.3 40.7-40.8.1-22.5-18.1-40.7-40.6-40.7zm0-325.9H104.7C82.2 471.2 64 489.5 64 512c0 22.5 18.2 40.7 40.7 40.7h814.5c22.5 0 40.7-18.2 40.7-40.7.1-22.5-18.1-40.8-40.6-40.8zM104.7 226.9h814.5c22.5 0 40.7-18.2 40.7-40.8 0-22.5-18.2-40.7-40.7-40.7H104.7c-22.5 0-40.7 18.2-40.7 40.7 0 22.6 18.2 40.8 40.7 40.8z" fill="currentColor"/></svg>
