<svg class="icon" viewBox="0 0 1024 1024" xmlns="http://www.w3.org/2000/svg"><path d="M537.6 51.2v102.4c153.6 0 286.72 174.08 373.76 337.92C849.92 624.64 691.2 870.4 522.24 870.4c-128 0-266.24-133.12-404.48-378.88 76.8-128 245.76-337.92 419.84-337.92V51.2C235.52 51.2 0 486.4 0 486.4c194.56 363.52 368.64 486.4 522.24 486.4 302.08 0 501.76-481.28 501.76-481.28C860.16 158.72 686.08 51.2 537.6 51.2z" fill="currentColor"/><path d="M512 409.6c56.32 0 102.4 46.08 102.4 102.4S568.32 614.4 512 614.4 409.6 568.32 409.6 512 455.68 409.6 512 409.6m0-102.4c-112.64 0-204.8 92.16-204.8 204.8S399.36 716.8 512 716.8 716.8 624.64 716.8 512 624.64 307.2 512 307.2z" fill="currentColor"/></svg>
