<svg class="icon" viewBox="0 0 1024 1024" xmlns="http://www.w3.org/2000/svg"><path d="M972.8 102.4c-30.72 0-51.2 20.48-51.2 51.2v51.2c-51.2-71.68-122.88-128-204.8-158.72C460.8-66.56 158.72 51.2 46.08 307.2S51.2 865.28 307.2 977.92s558.08-5.12 670.72-261.12h-5.12c0-30.72-20.48-51.2-51.2-51.2s-51.2 20.48-51.2 51.2h-5.12C819.2 793.6 752.64 855.04 665.6 890.88c-209.92 87.04-445.44-15.36-532.48-225.28s15.36-450.56 225.28-532.48c189.44-81.92 404.48 0 506.88 174.08H768c-30.72 0-51.2 20.48-51.2 51.2s20.48 51.2 51.2 51.2h204.8c30.72 0 51.2-20.48 51.2-51.2V153.6c0-30.72-20.48-51.2-51.2-51.2z" fill="currentColor"/></svg>
