<svg class="icon" viewBox="0 0 1024 1024" xmlns="http://www.w3.org/2000/svg"><path d="M512 1024C230.4 1024 0 793.6 0 512S230.4 0 512 0s512 230.4 512 512-230.4 512-512 512zm0-931.84C281.6 92.16 92.16 276.48 92.16 512S276.48 931.84 512 931.84 931.84 747.52 931.84 512 742.4 92.16 512 92.16z" fill="currentColor"/><path d="M435.2 742.4c-25.6 0-51.2-5.12-76.8-20.48-56.32-30.72-81.92-102.4-81.92-215.04s30.72-174.08 87.04-209.92 133.12-25.6 230.4 30.72C696.32 384 742.4 445.44 742.4 506.88s-46.08 128-148.48 179.2C537.6 727.04 481.28 742.4 435.2 742.4zm0-368.64c-10.24 0-20.48 0-25.6 5.12-25.6 10.24-35.84 61.44-35.84 133.12s15.36 122.88 35.84 133.12c25.6 15.36 76.8 5.12 138.24-30.72 66.56-35.84 102.4-71.68 102.4-97.28s-35.84-66.56-102.4-97.28c-46.08-35.84-81.92-46.08-112.64-46.08z" fill="currentColor"/></svg>
