<svg class="icon" viewBox="0 0 1024 1024" xmlns="http://www.w3.org/2000/svg"><path d="M921.6 1024H102.4A102.4 102.4 0 0 1 0 921.6v-256a51.2 51.2 0 0 1 102.4 0v256h819.2v-256a51.2 51.2 0 0 1 102.4 0v256A102.4 102.4 0 0 1 921.6 1024z" fill="currentColor"/><path d="M753.306 299.674a47.718 47.718 0 0 1-68.967 0L559.974 171.366v497.408a48.026 48.026 0 1 1-96 0V171.315L339.61 299.674a47.718 47.718 0 0 1-68.967 0 51.2 51.2 0 0 1 0-71.168L477.491 15.104a47.77 47.77 0 0 1 68.967 0l206.848 213.402a51.558 51.558 0 0 1 0 71.168z" fill="currentColor"/></svg>
