<?xml version="1.0" standalone="no"?><!DOCTYPE svg PUBLIC "-//W3C//DTD SVG 1.1//EN" "http://www.w3.org/Graphics/SVG/1.1/DTD/svg11.dtd"><svg t="1700577974543" class="icon" viewBox="0 0 1024 1024" version="1.1" xmlns="http://www.w3.org/2000/svg" p-id="1471" xmlns:xlink="http://www.w3.org/1999/xlink"><path d="M858.1 363.7H718.9c-16.6 0-30 13.4-30 30s13.4 30 30 30h109.2v389.5H195.9V423.7h100c16.6 0 30-13.4 30-30s-13.4-30-30-30h-130c-16.6 0-30 13.4-30 30v449.5c0 16.6 13.4 30 30 30h692.2c16.6 0 30-13.4 30-30V393.7c0-16.6-13.4-30-30-30z" fill="#1677FF" p-id="1472"></path><path d="M401.4 316.9c7.7 0 15.3-2.9 21.2-8.8l54.8-54.8v291.6c0 16.6 13.4 30 30 30s30-13.4 30-30V253.2l54.8 54.8c5.9 5.9 13.5 8.8 21.2 8.8 7.7 0 15.3-2.9 21.2-8.8 11.7-11.7 11.7-30.7 0-42.4l-106-106c-11.7-11.7-30.7-11.7-42.4 0l-106 106c-11.7 11.7-11.7 30.7 0 42.4 5.8 5.9 13.5 8.9 21.2 8.9z" fill="currentColor" p-id="1473"></path></svg>
